<?xml version="1.0" encoding="UTF-8" standalone="no"?>
<!DOCTYPE svg PUBLIC "-//W3C//DTD SVG 1.1//EN" "http://www.w3.org/Graphics/SVG/1.1/DTD/svg11.dtd">
<svg width="100%" height="100%" viewBox="0 0 1080 1080" version="1.1" xmlns="http://www.w3.org/2000/svg" xmlns:xlink="http://www.w3.org/1999/xlink" xml:space="preserve" xmlns:serif="http://www.serif.com/" style="fill-rule:evenodd;clip-rule:evenodd;stroke-linejoin:round;stroke-miterlimit:2;">
    <g transform="matrix(1,0,0,1,-6597.77,-1245.81)">
        <g id="Artboard7" transform="matrix(1,0,0,1,4.92274,1245.81)">
            <rect x="6592.85" y="0" width="1080" height="1080" style="fill:none;"/>
            <g transform="matrix(3.2489,0,0,3.2489,5713.26,-1593.74)">
                <g transform="matrix(0.785282,0,0,0.785282,-231.739,-251.966)">
                    <path d="M939.874,1215.94L754.249,1215.94L741.194,1193.55L834.007,1029.52L860.117,1029.52L952.929,1193.55L939.874,1215.94ZM902.199,1188.6L909.955,1175.3L854.817,1077.85L839.306,1077.85L784.169,1175.3L791.924,1188.6L902.199,1188.6Z" style="fill:rgb(243, 244, 246);"/>
                </g>
                <g transform="matrix(0.122394,0,0,0.122394,278.164,649.491)">
                    <g>
                        <g transform="matrix(0.788867,0,0,0.788867,178.973,325.297)">
                            <path d="M601.767,558.667L700.718,697.199L509.641,697.199L509.641,459.717L700.718,459.717L601.767,558.667ZM580.219,592.892L534.942,671.897L638.463,671.897L580.219,592.892Z" style="fill:rgb(243, 244, 246);fill-rule:nonzero;"/>
                        </g>
                        <g transform="matrix(0.788867,0,0,0.788867,608.803,328.49)">
                            <path d="M1024.53,697.199L1024.53,459.717L1123.82,459.717C1140.42,459.717 1154.75,462.788 1166.81,468.929C1180.69,475.981 1191.72,486.047 1199.91,499.126C1208.1,512.206 1212.19,526.594 1212.19,542.289C1212.19,557.985 1208.15,572.43 1200.08,585.623C1192,598.816 1181.03,608.939 1167.15,615.991C1155.32,622.132 1140.88,625.203 1123.82,625.203L1086.63,625.203L1086.63,697.199L1024.53,697.199Z" style="fill:rgb(243, 244, 246);fill-rule:nonzero;"/>
                        </g>
                        <g transform="matrix(0.676132,0,0,0.676132,481.953,389.701)">
                            <path d="M1013.47,719.384L738.933,719.384L719.625,686.273L856.895,443.673L895.511,443.673L1032.78,686.273L1013.47,719.384ZM975.43,675.014C975.43,675.014 876.203,499.648 876.203,499.648L776.977,675.014L975.43,675.014Z" style="fill:rgb(243, 244, 246);"/>
                        </g>
                        <g transform="matrix(0.676132,0,0,0.676132,1315.27,389.701)">
                            <path d="M1013.47,719.384L738.933,719.384L719.625,686.273L856.895,443.673L895.511,443.673L1032.78,686.273L1013.47,719.384ZM975.43,675.014C975.43,675.014 876.203,499.648 876.203,499.648L776.977,675.014L975.43,675.014Z" style="fill:rgb(243, 244, 246);"/>
                        </g>
                    </g>
                </g>
            </g>
        </g>
    </g>
</svg>
